<svg xmlns="http://www.w3.org/2000/svg" viewBox="0 0 539 143" fill="none">
  <path d="M46.1995 80.775L36.6949 90.3067C33.6631 89.1243 30.3906 88.4969 26.9497 88.4969C12.0552 88.4969 0 100.586 0 115.523C0 130.46 12.0552 142.55 26.9497 142.55C41.8442 142.55 53.8994 130.46 53.8994 115.523C53.8994 112.073 53.2497 108.791 52.0947 105.75L120.119 37.5325C121.827 35.8192 121.827 33.0683 120.119 31.355C113.309 24.526 102.289 24.526 95.4789 31.355L61.5993 65.3313L52.0947 55.7996C53.2738 52.7591 53.8994 49.4773 53.8994 46.0266C53.8994 31.0896 41.8442 19 26.9497 19C12.0552 19 0 31.0896 0 46.0266C0 60.9636 12.0552 73.0531 26.9497 73.0531C30.3906 73.0531 33.6631 72.4016 36.6949 71.2433L46.1995 80.775ZM69.7564 104.399L95.4789 130.195C102.289 137.024 113.309 137.024 120.119 130.195C121.827 128.482 121.827 125.731 120.119 124.018L85.1563 88.9554L69.7564 104.399ZM15.3998 46.0266C15.3998 39.6319 20.5732 34.4438 26.9497 34.4438C33.3262 34.4438 38.4996 39.6319 38.4996 46.0266C38.4996 52.4212 33.3262 57.6094 26.9497 57.6094C20.5732 57.6094 15.3998 52.4212 15.3998 46.0266ZM26.9497 103.941C33.3262 103.941 38.4996 109.129 38.4996 115.523C38.4996 121.918 33.3262 127.106 26.9497 127.106C20.5732 127.106 15.3998 121.918 15.3998 115.523C15.3998 109.129 20.5732 103.941 26.9497 103.941Z" fill="#ffffff" />
  <path d="M212.5 94C212.5 100.2 210.75 105.3 207.25 109.3C203.85 113.2 199.25 116.05 193.45 117.85C187.65 119.65 181.15 120.4 173.95 120.1C166.85 119.9 159.6 118.75 152.2 116.65C152.2 112.85 152.2 108.95 152.2 104.95C152.2 100.95 152.2 97.05 152.2 93.25C156.4 95.15 160.6 96.65 164.8 97.75C169 98.75 172.8 99.35 176.2 99.55C179.6 99.75 182.35 99.5 184.45 98.8C186.55 98 187.6 96.7 187.6 94.9C187.6 93.5 186.7 92.4 184.9 91.6C183.2 90.8 180.95 90.1 178.15 89.5C175.35 88.8 172.35 88 169.15 87.1C166.05 86.1 163.1 84.75 160.3 83.05C157.5 81.25 155.2 78.9 153.4 76C151.7 73 150.85 69.15 150.85 64.45C150.85 58.85 152.45 54.1 155.65 50.2C158.95 46.2 163.35 43.2 168.85 41.2C174.35 39.1 180.5 38.05 187.3 38.05C194.1 38.05 201.05 39.2 208.15 41.5C208.15 45.3 208.15 49.2 208.15 53.2C208.15 57.2 208.15 61.1 208.15 64.9C202.55 62.2 197.3 60.4 192.4 59.5C187.5 58.6 183.55 58.5 180.55 59.2C177.55 59.8 176.05 61.15 176.05 63.25C176.05 64.65 176.9 65.75 178.6 66.55C180.4 67.25 182.65 67.9 185.35 68.5C188.15 69.1 191.1 69.9 194.2 70.9C197.4 71.9 200.35 73.3 203.05 75.1C205.85 76.8 208.1 79.2 209.8 82.3C211.6 85.3 212.5 89.2 212.5 94ZM224.441 118C224.441 105.2 224.441 92.3 224.441 79.3C224.441 66.2 224.441 53.25 224.441 40.45C228.541 40.45 232.691 40.45 236.891 40.45C241.091 40.45 245.191 40.45 249.191 40.45C249.191 41.15 249.191 41.8 249.191 42.4C249.191 43 249.191 43.65 249.191 44.35C251.891 42.45 254.891 41 258.191 40C261.591 38.9 265.241 38.35 269.141 38.35C274.841 38.35 279.841 39.65 284.141 42.25C288.541 44.85 291.941 48.6 294.341 53.5C296.841 58.3 298.091 64.1 298.091 70.9C298.091 78.7 298.091 86.55 298.091 94.45C298.091 102.35 298.091 110.2 298.091 118C294.091 118 289.991 118 285.791 118C281.591 118 277.441 118 273.341 118C273.341 110.8 273.341 103.5 273.341 96.1C273.341 88.7 273.341 81.4 273.341 74.2C273.341 70.2 272.391 67 270.491 64.6C268.691 62.1 265.791 60.85 261.791 60.85C257.791 60.85 254.691 62 252.491 64.3C250.291 66.6 249.191 69.9 249.191 74.2C249.191 81.4 249.191 88.7 249.191 96.1C249.191 103.5 249.191 110.8 249.191 118C245.191 118 241.091 118 236.891 118C232.691 118 228.541 118 224.441 118ZM326.557 31.6C323.657 31.6 321.007 30.9 318.607 29.5C316.307 28.1 314.457 26.25 313.057 23.95C311.657 21.65 310.957 19.1 310.957 16.3C310.957 13.5 311.657 11 313.057 8.79999C314.457 6.49999 316.307 4.64999 318.607 3.24999C321.007 1.84999 323.657 1.14999 326.557 1.14999C329.357 1.14999 331.907 1.84999 334.207 3.24999C336.607 4.64999 338.507 6.49999 339.907 8.79999C341.307 11 342.007 13.5 342.007 16.3C342.007 19.1 341.307 21.65 339.907 23.95C338.507 26.25 336.607 28.1 334.207 29.5C331.907 30.9 329.357 31.6 326.557 31.6ZM314.107 118C314.107 105.2 314.107 92.3 314.107 79.3C314.107 66.2 314.107 53.25 314.107 40.45C318.207 40.45 322.357 40.45 326.557 40.45C330.757 40.45 334.857 40.45 338.857 40.45C338.857 53.25 338.857 66.2 338.857 79.3C338.857 92.3 338.857 105.2 338.857 118C334.857 118 330.757 118 326.557 118C322.357 118 318.207 118 314.107 118ZM380.881 142C376.881 142 372.781 142 368.581 142C364.381 142 360.231 142 356.131 142C356.131 125.3 356.131 108.4 356.131 91.3C356.131 74.1 356.131 57.15 356.131 40.45C360.231 40.45 364.381 40.45 368.581 40.45C372.781 40.45 376.881 40.45 380.881 40.45C380.881 41.15 380.881 41.85 380.881 42.55C380.881 43.25 380.881 44 380.881 44.8C383.381 42.8 386.231 41.25 389.431 40.15C392.631 38.95 396.031 38.35 399.631 38.35C404.631 38.35 409.381 39.35 413.881 41.35C418.381 43.25 422.331 46 425.731 49.6C429.231 53.2 431.931 57.5 433.831 62.5C435.831 67.5 436.831 73.05 436.831 79.15C436.831 85.15 435.831 90.65 433.831 95.65C431.931 100.65 429.231 105 425.731 108.7C422.331 112.3 418.381 115.1 413.881 117.1C409.381 119.1 404.581 120.1 399.481 120.1C395.881 120.1 392.481 119.5 389.281 118.3C386.181 117.2 383.381 115.6 380.881 113.5C380.881 118.2 380.881 122.95 380.881 127.75C380.881 132.55 380.881 137.3 380.881 142ZM396.181 98.2C401.081 98.2 404.931 96.5 407.731 93.1C410.631 89.6 412.081 84.95 412.081 79.15C412.081 73.35 410.631 68.75 407.731 65.35C404.931 61.95 401.081 60.25 396.181 60.25C391.381 60.25 387.531 62 384.631 65.5C381.731 68.9 380.281 73.45 380.281 79.15C380.281 84.85 381.731 89.45 384.631 92.95C387.531 96.45 391.381 98.2 396.181 98.2ZM473.898 142C469.898 142 465.798 142 461.598 142C457.398 142 453.248 142 449.148 142C449.148 125.3 449.148 108.4 449.148 91.3C449.148 74.1 449.148 57.15 449.148 40.45C453.248 40.45 457.398 40.45 461.598 40.45C465.798 40.45 469.898 40.45 473.898 40.45C473.898 41.15 473.898 41.85 473.898 42.55C473.898 43.25 473.898 44 473.898 44.8C476.398 42.8 479.248 41.25 482.448 40.15C485.648 38.95 489.048 38.35 492.648 38.35C497.648 38.35 502.398 39.35 506.898 41.35C511.398 43.25 515.348 46 518.748 49.6C522.248 53.2 524.948 57.5 526.848 62.5C528.848 67.5 529.848 73.05 529.848 79.15C529.848 85.15 528.848 90.65 526.848 95.65C524.948 100.65 522.248 105 518.748 108.7C515.348 112.3 511.398 115.1 506.898 117.1C502.398 119.1 497.598 120.1 492.498 120.1C488.898 120.1 485.498 119.5 482.298 118.3C479.198 117.2 476.398 115.6 473.898 113.5C473.898 118.2 473.898 122.95 473.898 127.75C473.898 132.55 473.898 137.3 473.898 142ZM489.198 98.2C494.098 98.2 497.948 96.5 500.748 93.1C503.648 89.6 505.098 84.95 505.098 79.15C505.098 73.35 503.648 68.75 500.748 65.35C497.948 61.95 494.098 60.25 489.198 60.25C484.398 60.25 480.548 62 477.648 65.5C474.748 68.9 473.298 73.45 473.298 79.15C473.298 84.85 474.748 89.45 477.648 92.95C480.548 96.45 484.398 98.2 489.198 98.2Z" fill="#ffffff" />
</svg>
